<svg xmlns="http://www.w3.org/2000/svg" width="48" height="48"><path fill="#ff5252" d="M42.459 32.519c-1.037-3.336-9.539-19.596-12.12-24.5l-.026-.048C29.153 5.559 26.676 4 24 4s-5.153 1.559-6.291 3.929l-.048.091C15.08 12.923 6.578 29.183 5.542 32.518 5.261 33.421 5 34.407 5 35.5c0 4.687 3.813 8.5 8.5 8.5 4.654 0 7.612-1.949 10.5-5.184C26.888 42.051 29.846 44 34.5 44c4.687 0 8.5-3.813 8.5-8.5 0-1.093-.261-2.079-.541-2.981zm-18.46 2.143C22.33 32.515 20 28.881 20 26c0-2.206 1.794-4 4-4s4 1.794 4 4c0 2.872-2.332 6.511-4.001 8.662zM34.5 41c-3.287 0-5.521-1.107-8.325-4.258C27.878 34.596 31 30.104 31 26c0-3.86-3.141-7-7-7s-7 3.14-7 7c0 4.104 3.122 8.596 4.825 10.742C19.021 39.893 16.787 41 13.5 41A5.506 5.506 0 0 1 8 35.5c0-.653.162-1.308.406-2.09.764-2.46 6.894-14.462 11.91-23.993l.076-.146C21.055 7.891 22.471 7 24 7s2.945.891 3.615 2.285l.068.132C32.7 18.948 38.83 30.95 39.595 33.411c.243.781.405 1.436.405 2.089 0 3.033-2.468 5.5-5.5 5.5z"/></svg>