<svg xmlns="http://www.w3.org/2000/svg" width="110" height="34" viewBox="0 0 108 34"><path style="stroke:none;fill-rule:nonzero;fill:#ff5a5f;fill-opacity:1" d="M56.918 8.555a2.194 2.194 0 0 1-2.191 2.207 2.197 2.197 0 0 1-2.196-2.207c0-1.227.946-2.211 2.196-2.211 1.246.035 2.191 1.02 2.191 2.21zm-9.043 4.453v.543s-1.043-1.36-3.27-1.36c-3.68 0-6.546 2.82-6.546 6.73 0 3.876 2.832 6.727 6.546 6.727 2.258 0 3.27-1.39 3.27-1.39v.578c0 .27.203.473.473.473h2.734V12.53h-2.734a.485.485 0 0 0-.473.477zm0 8.191c-.504.746-1.516 1.39-2.73 1.39-2.16 0-3.813-1.359-3.813-3.667 0-2.313 1.652-3.672 3.813-3.672 1.18 0 2.257.68 2.73 1.395zm5.23-8.668h3.239V25.31h-3.239zm48.383-.34c-2.226 0-3.273 1.36-3.273 1.36V6.379h-3.238v18.93h2.734c.27 0 .473-.235.473-.473v-.578s1.043 1.39 3.27 1.39c3.679 0 6.546-2.851 6.546-6.726s-2.867-6.73-6.512-6.73zm-.539 10.368c-1.25 0-2.226-.649-2.734-1.395V16.61c.508-.68 1.586-1.394 2.734-1.394 2.16 0 3.813 1.36 3.813 3.672 0 2.312-1.653 3.672-3.813 3.672zm-7.66-4.829v7.614h-3.238v-7.239c0-2.109-.676-2.957-2.496-2.957-.98 0-1.993.508-2.633 1.258v8.903h-3.238V12.53h2.562c.27 0 .473.239.473.477v.543c.945-.989 2.195-1.36 3.441-1.36 1.418 0 2.598.407 3.543 1.223 1.149.953 1.586 2.176 1.586 4.316zM73.82 12.191c-2.226 0-3.27 1.36-3.27 1.36V6.379H67.31v18.93h2.734c.27 0 .473-.235.473-.473v-.578s1.046 1.39 3.273 1.39c3.676 0 6.543-2.851 6.543-6.726.035-3.875-2.832-6.73-6.512-6.73zm-.539 10.368c-1.246 0-2.226-.649-2.73-1.395V16.61c.504-.68 1.586-1.394 2.73-1.394 2.16 0 3.813 1.36 3.813 3.672 0 2.312-1.653 3.672-3.813 3.672zm-8.77-10.368c.977 0 1.485.168 1.485.168v3.028s-2.7-.918-4.387 1.02v8.937h-3.238V12.53h2.73c.27 0 .473.239.473.477v.543c.61-.715 1.922-1.36 2.938-1.36zm-33.64 11.965c-.168-.41-.336-.851-.504-1.226-.273-.61-.543-1.188-.777-1.73l-.035-.036a354.695 354.695 0 0 0-7.457-15.363L22 5.598A60.674 60.674 0 0 1 21.187 4c-.335-.613-.675-1.258-1.214-1.871C18.895.769 17.343.023 15.688.023c-1.688 0-3.204.747-4.317 2.04-.508.609-.879 1.257-1.215 1.867-.27.547-.539 1.09-.808 1.597l-.102.207C6.648 10.832 4.117 15.996 1.79 21.098l-.035.066c-.234.543-.504 1.121-.777 1.734-.168.372-.336.782-.504 1.223-.438 1.258-.575 2.445-.407 3.672a7.218 7.218 0 0 0 4.387 5.64c.879.376 1.79.544 2.734.544a8.91 8.91 0 0 0 4.25-1.223c1.383-.781 2.7-1.902 4.184-3.535 1.484 1.633 2.836 2.754 4.184 3.535a8.91 8.91 0 0 0 3.375 1.156c.27.035.605.067.875.067.945 0 1.89-.168 2.734-.543 2.363-.954 4.016-3.125 4.387-5.641.27-1.191.133-2.379-.305-3.637zm-15.215 1.766c-1.824-2.313-3.004-4.485-3.41-6.32-.168-.782-.2-1.465-.101-2.075.07-.543.273-1.02.543-1.43.64-.917 1.718-1.492 2.968-1.492 1.246 0 2.36.543 2.969 1.493.27.41.473.886.54 1.43.1.609.065 1.324-.102 2.074-.407 1.8-1.586 3.976-3.407 6.32zm13.461 1.598a5.04 5.04 0 0 1-3.07 3.976 5.074 5.074 0 0 1-2.563.34c-.843-.102-1.687-.375-2.566-.883-1.215-.68-2.43-1.734-3.848-3.297 2.23-2.754 3.578-5.27 4.086-7.511a8.629 8.629 0 0 0 .168-2.891 5.61 5.61 0 0 0-.91-2.309c-1.047-1.53-2.8-2.414-4.758-2.414-1.957 0-3.71.918-4.758 2.414a5.504 5.504 0 0 0-.91 2.309 7.09 7.09 0 0 0 .168 2.89c.504 2.243 1.89 4.794 4.082 7.547-1.383 1.563-2.633 2.618-3.847 3.297-.875.508-1.72.782-2.563.883a5.393 5.393 0 0 1-2.566-.34 5.053 5.053 0 0 1-3.07-3.976 5.737 5.737 0 0 1 .304-2.653c.102-.34.27-.68.438-1.086.238-.546.507-1.125.777-1.699l.035-.07a374.965 374.965 0 0 1 7.422-15.262l.102-.203c.27-.508.539-1.055.808-1.562.27-.543.574-1.055.945-1.497.707-.816 1.653-1.257 2.7-1.257 1.047 0 1.992.441 2.699 1.257.371.442.676.954.945 1.497.27.507.54 1.054.809 1.562l.101.203a455.904 455.904 0 0 1 7.391 15.297v.035c.27.543.504 1.153.773 1.7.168.406.34.745.442 1.085.27.883.37 1.735.234 2.618zm0 0"/></svg>